<?xml version="1.0" encoding="utf-8"?><!-- Uploaded to: SVG Repo, www.svgrepo.com, Generator: SVG Repo Mixer Tools -->
<svg width="800px" height="800px" viewBox="0 0 24 24" fill="none" xmlns="http://www.w3.org/2000/svg">
<path d="M8.34 21.19C8.22216 21.1887 8.10606 21.1614 8 21.11C7.87595 21.0467 7.77138 20.951 7.69742 20.833C7.62346 20.715 7.58288 20.5792 7.58 20.44V18H4.81C4.61109 18 4.42032 17.921 4.27967 17.7803C4.13902 17.6397 4.06 17.4489 4.06 17.25C4.06 17.0511 4.13902 16.8603 4.27967 16.7197C4.42032 16.579 4.61109 16.5 4.81 16.5H8.34C8.43886 16.4987 8.53699 16.5171 8.62859 16.5543C8.7202 16.5916 8.80341 16.6468 8.87332 16.7167C8.94324 16.7866 8.99843 16.8698 9.03565 16.9614C9.07286 17.053 9.09134 17.1511 9.09 17.25V18.95L12 16.71C12.1317 16.6162 12.2884 16.564 12.45 16.56H15.84L18.13 14.24V4.06H5.56V14C5.56 14.1989 5.48098 14.3897 5.34033 14.5303C5.19968 14.671 5.00891 14.75 4.81 14.75C4.61109 14.75 4.42032 14.671 4.27967 14.5303C4.13902 14.3897 4.06 14.1989 4.06 14V3.31C4.06259 3.11189 4.14244 2.92263 4.28253 2.78253C4.42263 2.64244 4.61189 2.56259 4.81 2.56H18.9C19.0981 2.56259 19.2874 2.64244 19.4275 2.78253C19.5676 2.92263 19.6474 3.11189 19.65 3.31V14.55C19.6483 14.7456 19.5692 14.9326 19.43 15.07L16.71 17.84C16.6389 17.9104 16.5546 17.9661 16.4619 18.0038C16.3693 18.0416 16.2701 18.0607 16.17 18.06H12.72L8.8 21C8.67114 21.1112 8.5098 21.1779 8.34 21.19Z" fill="#000000"/>
<path d="M9.19 12.1C8.99109 12.1 8.80033 12.021 8.65967 11.8803C8.51902 11.7397 8.44 11.5489 8.44 11.35V7.23001C8.44 7.0311 8.51902 6.84033 8.65967 6.69968C8.80033 6.55903 8.99109 6.48001 9.19 6.48001C9.38891 6.48001 9.57968 6.55903 9.72033 6.69968C9.86099 6.84033 9.94 7.0311 9.94 7.23001V11.35C9.94135 11.4489 9.92287 11.547 9.88565 11.6386C9.84844 11.7302 9.79324 11.8134 9.72333 11.8833C9.65342 11.9533 9.5702 12.0084 9.4786 12.0457C9.387 12.0829 9.28887 12.1014 9.19 12.1Z" fill="#000000"/>
<path d="M14.81 12.1C14.7111 12.1014 14.613 12.0829 14.5214 12.0457C14.4298 12.0084 14.3466 11.9533 14.2767 11.8833C14.2068 11.8134 14.1516 11.7302 14.1144 11.6386C14.0771 11.547 14.0587 11.4489 14.06 11.35V7.23001C14.06 7.0311 14.139 6.84033 14.2797 6.69968C14.4203 6.55903 14.6111 6.48001 14.81 6.48001C15.0089 6.48001 15.1997 6.55903 15.3403 6.69968C15.481 6.84033 15.56 7.0311 15.56 7.23001V11.35C15.56 11.5489 15.481 11.7397 15.3403 11.8803C15.1997 12.021 15.0089 12.1 14.81 12.1Z" fill="#000000"/>
</svg>